<?xml version="1.0" encoding="UTF-8"?>
<svg xmlns="http://www.w3.org/2000/svg" xmlns:xlink="http://www.w3.org/1999/xlink" width="16" height="16" viewBox="0 0 16 16" version="1.1">
<g id="surface1">
<path style=" stroke:none;fill-rule:evenodd;fill:rgb(100%,100%,100%);fill-opacity:1;" d="M 14.113281 16 L 9.191406 11.074219 C 8.265625 11.65625 7.175781 12 6 12 C 2.6875 12 0 9.3125 0 6 C 0 2.6875 2.6875 0 6 0 C 9.3125 0 12 2.6875 12 6 C 12 7.175781 11.65625 8.265625 11.074219 9.191406 L 16 14.113281 Z M 6 10.667969 C 8.574219 10.667969 10.667969 8.574219 10.667969 6 C 10.667969 3.425781 8.574219 1.332031 6 1.332031 C 3.425781 1.332031 1.332031 3.425781 1.332031 6 C 1.332031 8.574219 3.425781 10.667969 6 10.667969 Z M 4 5.332031 C 4.367188 5.332031 4.667969 5.632812 4.667969 6 C 4.667969 6.367188 4.367188 6.667969 4 6.667969 C 3.632812 6.667969 3.332031 6.367188 3.332031 6 C 3.332031 5.632812 3.632812 5.332031 4 5.332031 Z M 6 5.332031 C 6.367188 5.332031 6.667969 5.632812 6.667969 6 C 6.667969 6.367188 6.367188 6.667969 6 6.667969 C 5.632812 6.667969 5.332031 6.367188 5.332031 6 C 5.332031 5.632812 5.632812 5.332031 6 5.332031 Z M 8 5.332031 C 8.367188 5.332031 8.667969 5.632812 8.667969 6 C 8.667969 6.367188 8.367188 6.667969 8 6.667969 C 7.632812 6.667969 7.332031 6.367188 7.332031 6 C 7.332031 5.632812 7.632812 5.332031 8 5.332031 Z M 8 5.332031 "/>
</g>
</svg>
